<svg width="13" height="24" viewBox="0 0 13 24" fill="none" xmlns="http://www.w3.org/2000/svg">
<path d="M12.4583 0.17812V3.9853H10.1938C9.89365 3.94694 9.58874 3.9736 9.29979 4.06347C9.01084 4.15335 8.74461 4.30434 8.51917 4.50619L8.52117 4.50419C8.19709 4.95882 8.04411 5.51336 8.08926 6.06985V6.06186V8.78727H12.3174L11.7575 13.0564H8.09526V24H3.67921V13.0554H0V8.78727H3.67921V5.64295C3.63138 4.88351 3.73998 4.12234 3.99829 3.40658C4.25659 2.69082 4.6591 2.03571 5.18089 1.48184L5.17789 1.48484C5.71045 0.980203 6.33998 0.589015 7.02829 0.335004C7.71659 0.0809939 8.44932 -0.0305441 9.18203 0.00715669H9.16903C10.3071 -0.0116158 11.445 0.0501921 12.5743 0.192117L12.4573 0.18012L12.4583 0.17812Z" fill="white"/>
</svg>
