<svg width="323" height="50" viewBox="0 0 323 50" fill="none" xmlns="http://www.w3.org/2000/svg">
<mask id="path-1-outside-1_1443_8933" maskUnits="userSpaceOnUse" x="57.75" y="5" width="265" height="40" fill="black">
<rect fill="white" x="57.75" y="5" width="265" height="40"/>
<path d="M95.25 14.5L89.75 39H83L78.25 21.05H77.75L73 39H66.25L60.75 14.5H65.25L69.25 35.6H70.25L76 14.5H80L85.75 35.6H86.75L90.75 14.5H95.25Z"/>
<path d="M122.238 39H108.238C107.272 39 106.438 38.6667 105.738 38C105.072 37.3 104.738 36.4667 104.738 35.5V25C104.738 24.0333 105.072 23.2167 105.738 22.55C106.438 21.85 107.272 21.5 108.238 21.5H118.738C119.705 21.5 120.522 21.85 121.188 22.55C121.888 23.2167 122.238 24.0333 122.238 25V28.5L118.738 32H108.738L111.738 29H118.738V24.5H108.238V36H122.238V39Z"/>
<path d="M149.986 35.5C149.986 36.4667 149.636 37.3 148.936 38C148.27 38.6667 147.453 39 146.486 39H135.986V36.05L132.486 39.5V13.5L135.986 10V24L138.486 21.5H146.486C147.453 21.5 148.27 21.85 148.936 22.55C149.636 23.2167 149.986 24.0333 149.986 25V35.5ZM146.486 36V24.5H135.986V36H146.486Z"/>
<path d="M179.236 35.5C179.236 36.4667 178.886 37.3 178.186 38C177.52 38.6667 176.703 39 175.736 39H165.236V36.05L161.736 39.5V13.5L165.236 10V24L167.736 21.5H175.736C176.703 21.5 177.52 21.85 178.186 22.55C178.886 23.2167 179.236 24.0333 179.236 25V35.5ZM175.736 36V24.5H165.236V36H175.736Z"/>
<path d="M207.986 39H193.986C193.02 39 192.186 38.6667 191.486 38C190.82 37.3 190.486 36.4667 190.486 35.5V25C190.486 24.0333 190.82 23.2167 191.486 22.55C192.186 21.85 193.02 21.5 193.986 21.5H204.486C205.453 21.5 206.27 21.85 206.936 22.55C207.636 23.2167 207.986 24.0333 207.986 25V28.5L204.486 32H194.486L197.486 29H204.486V24.5H193.986V36H207.986V39Z"/>
<path d="M231.734 28.5H228.234V24.5H221.234V39H217.734V21.5H221.234V24L223.734 21.5H228.234C229.201 21.5 230.018 21.85 230.684 22.55C231.384 23.2167 231.734 24.0333 231.734 25V28.5Z"/>
<path d="M274.227 39H256.727V14.5H260.727V35.5H270.227V32H274.227V39Z"/>
<path d="M293.986 39H286.986C286.02 39 285.186 38.6667 284.486 38C283.82 37.3 283.486 36.4667 283.486 35.5V24.5H278.486L281.486 21.5H283.486V18L286.986 14.5V21.5H293.986V24.5H286.986V36H293.986V39Z"/>
<path d="M320.74 39H317.24V36.5L314.74 39H306.74C305.774 39 304.94 38.6667 304.24 38C303.574 37.3 303.24 36.4667 303.24 35.5V25C303.24 24.0333 303.574 23.2167 304.24 22.55C304.94 21.85 305.774 21.5 306.74 21.5H317.24V13.5L320.74 10V39ZM317.24 36V22L314.74 24.5H306.74V36H317.24Z"/>
</mask>
<path d="M95.25 14.5L97.2014 14.9381L97.7488 12.5H95.25V14.5ZM89.75 39V41H91.3508L91.7014 39.4381L89.75 39ZM83 39L81.0666 39.5116L81.4604 41H83V39ZM78.25 21.05L80.1834 20.5384L79.7896 19.05H78.25V21.05ZM77.75 21.05V19.05H76.2104L75.8166 20.5384L77.75 21.05ZM73 39V41H74.5396L74.9334 39.5116L73 39ZM66.25 39L64.2986 39.4381L64.6492 41H66.25V39ZM60.75 14.5V12.5H58.2512L58.7986 14.9381L60.75 14.5ZM65.25 14.5L67.215 14.1275L66.9065 12.5H65.25V14.5ZM69.25 35.6L67.285 35.9725L67.5935 37.6H69.25V35.6ZM70.25 35.6V37.6H71.7779L72.1796 36.1259L70.25 35.6ZM76 14.5V12.5H74.4721L74.0704 13.9742L76 14.5ZM80 14.5L81.9296 13.9742L81.5279 12.5H80V14.5ZM85.75 35.6L83.8204 36.1259L84.2221 37.6H85.75V35.6ZM86.75 35.6V37.6H88.4065L88.715 35.9725L86.75 35.6ZM90.75 14.5V12.5H89.0935L88.785 14.1275L90.75 14.5ZM122.238 39V41H124.238V39H122.238ZM105.738 38L104.29 39.3793L104.324 39.4146L104.359 39.4483L105.738 38ZM105.738 22.55L104.324 21.1358L104.324 21.1358L105.738 22.55ZM121.188 22.55L119.74 23.9293L119.774 23.9646L119.809 23.9983L121.188 22.55ZM122.238 28.5L123.652 29.9142L124.238 29.3284V28.5H122.238ZM118.738 32V34H119.567L120.152 33.4142L118.738 32ZM108.738 32L107.324 30.5858L103.91 34H108.738V32ZM111.738 29V27H110.91L110.324 27.5858L111.738 29ZM118.738 29V31H120.738V29H118.738ZM118.738 24.5H120.738V22.5H118.738V24.5ZM108.238 24.5V22.5H106.238V24.5H108.238ZM108.238 36H106.238V38H108.238V36ZM122.238 36H124.238V34H122.238V36ZM148.936 38L147.522 36.5858L147.522 36.5858L148.936 38ZM135.986 39H133.986V41H135.986V39ZM135.986 36.05H137.986V31.2703L134.582 34.6257L135.986 36.05ZM132.486 39.5H130.486V44.2797L133.89 40.9244L132.486 39.5ZM132.486 13.5L131.072 12.0858L130.486 12.6716V13.5H132.486ZM135.986 10H137.986V5.17157L134.572 8.58579L135.986 10ZM135.986 24H133.986V28.8284L137.401 25.4142L135.986 24ZM138.486 21.5V19.5H137.658L137.072 20.0858L138.486 21.5ZM148.936 22.55L147.488 23.9293L147.522 23.9646L147.557 23.9983L148.936 22.55ZM146.486 36V38H148.486V36H146.486ZM146.486 24.5H148.486V22.5H146.486V24.5ZM135.986 24.5V22.5H133.986V24.5H135.986ZM135.986 36H133.986V38H135.986V36ZM178.186 38L176.772 36.5858L176.772 36.5858L178.186 38ZM165.236 39H163.236V41H165.236V39ZM165.236 36.05H167.236V31.2703L163.832 34.6257L165.236 36.05ZM161.736 39.5H159.736V44.2797L163.14 40.9244L161.736 39.5ZM161.736 13.5L160.322 12.0858L159.736 12.6716V13.5H161.736ZM165.236 10H167.236V5.17157L163.822 8.58579L165.236 10ZM165.236 24H163.236V28.8284L166.651 25.4142L165.236 24ZM167.736 21.5V19.5H166.908L166.322 20.0858L167.736 21.5ZM178.186 22.55L176.738 23.9293L176.772 23.9646L176.807 23.9983L178.186 22.55ZM175.736 36V38H177.736V36H175.736ZM175.736 24.5H177.736V22.5H175.736V24.5ZM165.236 24.5V22.5H163.236V24.5H165.236ZM165.236 36H163.236V38H165.236V36ZM207.986 39V41H209.986V39H207.986ZM191.486 38L190.038 39.3793L190.072 39.4146L190.107 39.4483L191.486 38ZM191.486 22.55L190.072 21.1358L190.072 21.1358L191.486 22.55ZM206.936 22.55L205.488 23.9293L205.522 23.9646L205.557 23.9983L206.936 22.55ZM207.986 28.5L209.401 29.9142L209.986 29.3284V28.5H207.986ZM204.486 32V34H205.315L205.901 33.4142L204.486 32ZM194.486 32L193.072 30.5858L189.658 34H194.486V32ZM197.486 29V27H196.658L196.072 27.5858L197.486 29ZM204.486 29V31H206.486V29H204.486ZM204.486 24.5H206.486V22.5H204.486V24.5ZM193.986 24.5V22.5H191.986V24.5H193.986ZM193.986 36H191.986V38H193.986V36ZM207.986 36H209.986V34H207.986V36ZM231.734 28.5V30.5H233.734V28.5H231.734ZM228.234 28.5H226.234V30.5H228.234V28.5ZM228.234 24.5H230.234V22.5H228.234V24.5ZM221.234 24.5V22.5H219.234V24.5H221.234ZM221.234 39V41H223.234V39H221.234ZM217.734 39H215.734V41H217.734V39ZM217.734 21.5V19.5H215.734V21.5H217.734ZM221.234 21.5H223.234V19.5H221.234V21.5ZM221.234 24H219.234V28.8284L222.649 25.4142L221.234 24ZM223.734 21.5V19.5H222.906L222.32 20.0858L223.734 21.5ZM230.684 22.55L229.236 23.9293L229.27 23.9646L229.305 23.9983L230.684 22.55ZM274.227 39V41H276.227V39H274.227ZM256.727 39H254.727V41H256.727V39ZM256.727 14.5V12.5H254.727V14.5H256.727ZM260.727 14.5H262.727V12.5H260.727V14.5ZM260.727 35.5H258.727V37.5H260.727V35.5ZM270.227 35.5V37.5H272.227V35.5H270.227ZM270.227 32V30H268.227V32H270.227ZM274.227 32H276.227V30H274.227V32ZM293.986 39V41H295.986V39H293.986ZM284.486 38L283.038 39.3793L283.072 39.4146L283.107 39.4483L284.486 38ZM283.486 24.5H285.486V22.5H283.486V24.5ZM278.486 24.5L277.072 23.0858L273.658 26.5H278.486V24.5ZM281.486 21.5V19.5H280.658L280.072 20.0858L281.486 21.5ZM283.486 21.5V23.5H285.486V21.5H283.486ZM283.486 18L282.072 16.5858L281.486 17.1716V18H283.486ZM286.986 14.5H288.986V9.67157L285.572 13.0858L286.986 14.5ZM286.986 21.5H284.986V23.5H286.986V21.5ZM293.986 21.5H295.986V19.5H293.986V21.5ZM293.986 24.5V26.5H295.986V24.5H293.986ZM286.986 24.5V22.5H284.986V24.5H286.986ZM286.986 36H284.986V38H286.986V36ZM293.986 36H295.986V34H293.986V36ZM320.74 39V41H322.74V39H320.74ZM317.24 39H315.24V41H317.24V39ZM317.24 36.5H319.24V31.6716L315.826 35.0858L317.24 36.5ZM314.74 39V41H315.569L316.154 40.4142L314.74 39ZM304.24 38L302.792 39.3793L302.826 39.4146L302.861 39.4483L304.24 38ZM304.24 22.55L302.826 21.1358L302.826 21.1358L304.24 22.55ZM317.24 21.5V23.5H319.24V21.5H317.24ZM317.24 13.5L315.826 12.0858L315.24 12.6716V13.5H317.24ZM320.74 10H322.74V5.17157L319.326 8.58579L320.74 10ZM317.24 36V38H319.24V36H317.24ZM317.24 22H319.24V17.1716L315.826 20.5858L317.24 22ZM314.74 24.5V26.5H315.569L316.154 25.9142L314.74 24.5ZM306.74 24.5V22.5H304.74V24.5H306.74ZM306.74 36H304.74V38H306.74V36ZM93.2986 14.0619L87.7986 38.5619L91.7014 39.4381L97.2014 14.9381L93.2986 14.0619ZM89.75 37H83V41H89.75V37ZM84.9334 38.4884L80.1834 20.5384L76.3166 21.5616L81.0666 39.5116L84.9334 38.4884ZM78.25 19.05H77.75V23.05H78.25V19.05ZM75.8166 20.5384L71.0666 38.4884L74.9334 39.5116L79.6834 21.5616L75.8166 20.5384ZM73 37H66.25V41H73V37ZM68.2014 38.5619L62.7014 14.0619L58.7986 14.9381L64.2986 39.4381L68.2014 38.5619ZM60.75 16.5H65.25V12.5H60.75V16.5ZM63.285 14.8725L67.285 35.9725L71.215 35.2275L67.215 14.1275L63.285 14.8725ZM69.25 37.6H70.25V33.6H69.25V37.6ZM72.1796 36.1259L77.9296 15.0258L74.0704 13.9742L68.3204 35.0742L72.1796 36.1259ZM76 16.5H80V12.5H76V16.5ZM78.0704 15.0258L83.8204 36.1259L87.6796 35.0742L81.9296 13.9742L78.0704 15.0258ZM85.75 37.6H86.75V33.6H85.75V37.6ZM88.715 35.9725L92.715 14.8725L88.785 14.1275L84.785 35.2275L88.715 35.9725ZM90.75 16.5H95.25V12.5H90.75V16.5ZM122.238 37H108.238V41H122.238V37ZM108.238 37C107.785 37 107.446 36.8642 107.118 36.5517L104.359 39.4483C105.431 40.4691 106.758 41 108.238 41V37ZM107.187 36.6207C106.874 36.2926 106.738 35.9531 106.738 35.5H102.738C102.738 36.9802 103.269 38.3074 104.29 39.3793L107.187 36.6207ZM106.738 35.5V25H102.738V35.5H106.738ZM106.738 25C106.738 24.5487 106.871 24.2453 107.152 23.9642L104.324 21.1358C103.272 22.188 102.738 23.5179 102.738 25H106.738ZM107.152 23.9642C107.488 23.6292 107.816 23.5 108.238 23.5V19.5C106.727 19.5 105.389 20.0708 104.324 21.1358L107.152 23.9642ZM108.238 23.5H118.738V19.5H108.238V23.5ZM118.738 23.5C119.158 23.5 119.451 23.6257 119.74 23.9293L122.637 21.1707C121.592 20.0743 120.252 19.5 118.738 19.5V23.5ZM119.809 23.9983C120.113 24.2875 120.238 24.5807 120.238 25H124.238C124.238 23.486 123.664 22.1459 122.568 21.1017L119.809 23.9983ZM120.238 25V28.5H124.238V25H120.238ZM120.824 27.0858L117.324 30.5858L120.152 33.4142L123.652 29.9142L120.824 27.0858ZM118.738 30H108.738V34H118.738V30ZM110.152 33.4142L113.152 30.4142L110.324 27.5858L107.324 30.5858L110.152 33.4142ZM111.738 31H118.738V27H111.738V31ZM120.738 29V24.5H116.738V29H120.738ZM118.738 22.5H108.238V26.5H118.738V22.5ZM106.238 24.5V36H110.238V24.5H106.238ZM108.238 38H122.238V34H108.238V38ZM120.238 36V39H124.238V36H120.238ZM147.986 35.5C147.986 35.9221 147.857 36.2507 147.522 36.5858L150.351 39.4142C151.415 38.3493 151.986 37.0112 151.986 35.5H147.986ZM147.522 36.5858C147.241 36.8669 146.938 37 146.486 37V41C147.968 41 149.298 40.4664 150.351 39.4142L147.522 36.5858ZM146.486 37H135.986V41H146.486V37ZM137.986 39V36.05H133.986V39H137.986ZM134.582 34.6257L131.082 38.0756L133.89 40.9244L137.39 37.4744L134.582 34.6257ZM134.486 39.5V13.5H130.486V39.5H134.486ZM133.901 14.9142L137.401 11.4142L134.572 8.58579L131.072 12.0858L133.901 14.9142ZM133.986 10V24H137.986V10H133.986ZM137.401 25.4142L139.901 22.9142L137.072 20.0858L134.572 22.5858L137.401 25.4142ZM138.486 23.5H146.486V19.5H138.486V23.5ZM146.486 23.5C146.906 23.5 147.199 23.6257 147.488 23.9293L150.385 21.1707C149.34 20.0743 148 19.5 146.486 19.5V23.5ZM147.557 23.9983C147.861 24.2875 147.986 24.5807 147.986 25H151.986C151.986 23.486 151.412 22.1459 150.316 21.1017L147.557 23.9983ZM147.986 25V35.5H151.986V25H147.986ZM148.486 36V24.5H144.486V36H148.486ZM146.486 22.5H135.986V26.5H146.486V22.5ZM133.986 24.5V36H137.986V24.5H133.986ZM135.986 38H146.486V34H135.986V38ZM177.236 35.5C177.236 35.9221 177.107 36.2507 176.772 36.5858L179.601 39.4142C180.665 38.3493 181.236 37.0112 181.236 35.5H177.236ZM176.772 36.5858C176.491 36.8669 176.188 37 175.736 37V41C177.218 41 178.548 40.4664 179.601 39.4142L176.772 36.5858ZM175.736 37H165.236V41H175.736V37ZM167.236 39V36.05H163.236V39H167.236ZM163.832 34.6257L160.332 38.0756L163.14 40.9244L166.64 37.4744L163.832 34.6257ZM163.736 39.5V13.5H159.736V39.5H163.736ZM163.151 14.9142L166.651 11.4142L163.822 8.58579L160.322 12.0858L163.151 14.9142ZM163.236 10V24H167.236V10H163.236ZM166.651 25.4142L169.151 22.9142L166.322 20.0858L163.822 22.5858L166.651 25.4142ZM167.736 23.5H175.736V19.5H167.736V23.5ZM175.736 23.5C176.156 23.5 176.449 23.6257 176.738 23.9293L179.635 21.1707C178.59 20.0743 177.25 19.5 175.736 19.5V23.5ZM176.807 23.9983C177.111 24.2875 177.236 24.5807 177.236 25H181.236C181.236 23.486 180.662 22.1459 179.566 21.1017L176.807 23.9983ZM177.236 25V35.5H181.236V25H177.236ZM177.736 36V24.5H173.736V36H177.736ZM175.736 22.5H165.236V26.5H175.736V22.5ZM163.236 24.5V36H167.236V24.5H163.236ZM165.236 38H175.736V34H165.236V38ZM207.986 37H193.986V41H207.986V37ZM193.986 37C193.533 37 193.194 36.8642 192.866 36.5517L190.107 39.4483C191.179 40.4691 192.506 41 193.986 41V37ZM192.935 36.6207C192.622 36.2926 192.486 35.9531 192.486 35.5H188.486C188.486 36.9802 189.017 38.3074 190.038 39.3793L192.935 36.6207ZM192.486 35.5V25H188.486V35.5H192.486ZM192.486 25C192.486 24.5487 192.619 24.2453 192.901 23.9642L190.072 21.1358C189.02 22.188 188.486 23.5179 188.486 25H192.486ZM192.901 23.9642C193.236 23.6292 193.564 23.5 193.986 23.5V19.5C192.475 19.5 191.137 20.0708 190.072 21.1358L192.901 23.9642ZM193.986 23.5H204.486V19.5H193.986V23.5ZM204.486 23.5C204.906 23.5 205.199 23.6257 205.488 23.9293L208.385 21.1707C207.34 20.0743 206 19.5 204.486 19.5V23.5ZM205.557 23.9983C205.861 24.2875 205.986 24.5807 205.986 25H209.986C209.986 23.486 209.412 22.1459 208.316 21.1017L205.557 23.9983ZM205.986 25V28.5H209.986V25H205.986ZM206.572 27.0858L203.072 30.5858L205.901 33.4142L209.401 29.9142L206.572 27.0858ZM204.486 30H194.486V34H204.486V30ZM195.901 33.4142L198.901 30.4142L196.072 27.5858L193.072 30.5858L195.901 33.4142ZM197.486 31H204.486V27H197.486V31ZM206.486 29V24.5H202.486V29H206.486ZM204.486 22.5H193.986V26.5H204.486V22.5ZM191.986 24.5V36H195.986V24.5H191.986ZM193.986 38H207.986V34H193.986V38ZM205.986 36V39H209.986V36H205.986ZM231.734 26.5H228.234V30.5H231.734V26.5ZM230.234 28.5V24.5H226.234V28.5H230.234ZM228.234 22.5H221.234V26.5H228.234V22.5ZM219.234 24.5V39H223.234V24.5H219.234ZM221.234 37H217.734V41H221.234V37ZM219.734 39V21.5H215.734V39H219.734ZM217.734 23.5H221.234V19.5H217.734V23.5ZM219.234 21.5V24H223.234V21.5H219.234ZM222.649 25.4142L225.149 22.9142L222.32 20.0858L219.82 22.5858L222.649 25.4142ZM223.734 23.5H228.234V19.5H223.734V23.5ZM228.234 23.5C228.654 23.5 228.947 23.6257 229.236 23.9293L232.133 21.1707C231.088 20.0743 229.748 19.5 228.234 19.5V23.5ZM229.305 23.9983C229.609 24.2875 229.734 24.5807 229.734 25H233.734C233.734 23.486 233.16 22.1459 232.064 21.1017L229.305 23.9983ZM229.734 25V28.5H233.734V25H229.734ZM274.227 37H256.727V41H274.227V37ZM258.727 39V14.5H254.727V39H258.727ZM256.727 16.5H260.727V12.5H256.727V16.5ZM258.727 14.5V35.5H262.727V14.5H258.727ZM260.727 37.5H270.227V33.5H260.727V37.5ZM272.227 35.5V32H268.227V35.5H272.227ZM270.227 34H274.227V30H270.227V34ZM272.227 32V39H276.227V32H272.227ZM293.986 37H286.986V41H293.986V37ZM286.986 37C286.533 37 286.194 36.8642 285.866 36.5517L283.107 39.4483C284.179 40.4691 285.506 41 286.986 41V37ZM285.935 36.6207C285.622 36.2926 285.486 35.9531 285.486 35.5H281.486C281.486 36.9802 282.017 38.3074 283.038 39.3793L285.935 36.6207ZM285.486 35.5V24.5H281.486V35.5H285.486ZM283.486 22.5H278.486V26.5H283.486V22.5ZM279.901 25.9142L282.901 22.9142L280.072 20.0858L277.072 23.0858L279.901 25.9142ZM281.486 23.5H283.486V19.5H281.486V23.5ZM285.486 21.5V18H281.486V21.5H285.486ZM284.901 19.4142L288.401 15.9142L285.572 13.0858L282.072 16.5858L284.901 19.4142ZM284.986 14.5V21.5H288.986V14.5H284.986ZM286.986 23.5H293.986V19.5H286.986V23.5ZM291.986 21.5V24.5H295.986V21.5H291.986ZM293.986 22.5H286.986V26.5H293.986V22.5ZM284.986 24.5V36H288.986V24.5H284.986ZM286.986 38H293.986V34H286.986V38ZM291.986 36V39H295.986V36H291.986ZM320.74 37H317.24V41H320.74V37ZM319.24 39V36.5H315.24V39H319.24ZM315.826 35.0858L313.326 37.5858L316.154 40.4142L318.654 37.9142L315.826 35.0858ZM314.74 37H306.74V41H314.74V37ZM306.74 37C306.287 37 305.948 36.8642 305.62 36.5517L302.861 39.4483C303.933 40.4691 305.26 41 306.74 41V37ZM305.689 36.6207C305.376 36.2926 305.24 35.9531 305.24 35.5H301.24C301.24 36.9802 301.771 38.3074 302.792 39.3793L305.689 36.6207ZM305.24 35.5V25H301.24V35.5H305.24ZM305.24 25C305.24 24.5487 305.373 24.2453 305.654 23.9642L302.826 21.1358C301.774 22.188 301.24 23.5179 301.24 25H305.24ZM305.654 23.9642C305.989 23.6292 306.318 23.5 306.74 23.5V19.5C305.229 19.5 303.891 20.0708 302.826 21.1358L305.654 23.9642ZM306.74 23.5H317.24V19.5H306.74V23.5ZM319.24 21.5V13.5H315.24V21.5H319.24ZM318.654 14.9142L322.154 11.4142L319.326 8.58579L315.826 12.0858L318.654 14.9142ZM318.74 10V39H322.74V10H318.74ZM319.24 36V22H315.24V36H319.24ZM315.826 20.5858L313.326 23.0858L316.154 25.9142L318.654 23.4142L315.826 20.5858ZM314.74 22.5H306.74V26.5H314.74V22.5ZM304.74 24.5V36H308.74V24.5H304.74ZM306.74 38H317.24V34H306.74V38Z" fill="black" mask="url(#path-1-outside-1_1443_8933)"/>
<path fill-rule="evenodd" clip-rule="evenodd" d="M45.1198 28.8731L50 0H43.4783L41.9672 7.74653L32.2464 7.74653L31.1745 11.6829L27.8985 0H22.1014L18.8255 11.6829L17.7536 7.74654L8.03283 7.74654L6.52174 0H0L4.88021 28.8731L0 50H6.52174L8.03283 42.2535H17.7536L18.8255 38.3171L22.1014 50H27.8985L31.1745 38.3171L32.2464 42.2535H41.9672L43.4783 50L50 50L45.1198 28.8731ZM39.3571 28.8731L37.6812 12.5353H36.2319L33.8227 28.8731L36.2319 37.4647H37.6812L39.3571 28.8731ZM28.603 28.8731L25.3623 9.22541H24.6377L21.397 28.8731L24.6377 40.7746H25.3623L28.603 28.8731ZM16.1773 28.8731L13.7681 12.5353H12.3188L10.6429 28.8731L12.3188 37.4647H13.7681L16.1773 28.8731Z" fill="black"/>
</svg>
