<svg width="50" height="50" viewBox="0 0 50 50" fill="none" xmlns="http://www.w3.org/2000/svg">
<path fill-rule="evenodd" clip-rule="evenodd" d="M45.1198 28.8731L50 0H43.4783L41.9672 7.74653L32.2464 7.74653L31.1745 11.6829L27.8985 0H22.1014L18.8255 11.6829L17.7536 7.74654L8.03283 7.74654L6.52174 0H0L4.88021 28.8731L0 50H6.52174L8.03283 42.2535H17.7536L18.8255 38.3171L22.1014 50H27.8985L31.1745 38.3171L32.2464 42.2535H41.9672L43.4783 50L50 50L45.1198 28.8731ZM39.3571 28.8731L37.6812 12.5353H36.2319L33.8227 28.8731L36.2319 37.4647H37.6812L39.3571 28.8731ZM28.603 28.8731L25.3623 9.22541H24.6377L21.397 28.8731L24.6377 40.7746H25.3623L28.603 28.8731ZM16.1773 28.8731L13.7681 12.5353H12.3188L10.6429 28.8731L12.3188 37.4647H13.7681L16.1773 28.8731Z" fill="black"/>
</svg>
